<?xml version="1.0" encoding="UTF-8"?>
<svg id="Capa_2" data-name="Capa 2" xmlns="http://www.w3.org/2000/svg" viewBox="0 0 350.5 404.54">
  <defs>
    <style>
      .cls-1 {
        fill: #9c8b58;
      }
    </style>
  </defs>
  <g id="Capa_4" data-name="Capa 4">
    <g>
      <g id="hex3">
        <polygon class="cls-1" points="350.25 101.18 350.25 303.26 175.25 404.29 .58 297.89 175.25 390.44 338.25 296.33 338.25 108.11 175.25 .25 350.25 101.18"/>
      </g>
      <g id="hex2">
        <polygon class="cls-1" points="175.25 38.25 310.25 124.29 310.25 280.15 175.25 352.7 298.25 273.22 298.25 131.22 175.25 50.25 42.38 111.93 175.25 38.25"/>
      </g>
      <g id="hex1">
        <polygon class="cls-1" points="270.25 147.5 270.25 256.83 175.42 310.63 86.55 257.39 175.4 299.6 259.2 251.64 259.2 152.01 175.42 88.81 270.25 147.5"/>
      </g>
      <g id="house">
        <polygon class="cls-1" points="238.25 238.15 175.25 277.46 112.25 237.78 118.21 168.57 124.25 231.18 175.25 265.46 226.25 231.18 232.91 168.57 238.25 238.15"/>
      </g>
    </g>
  </g>
</svg>